<?xml version="1.0" encoding="UTF-8" ?>
<!DOCTYPE svg PUBLIC "-//W3C//DTD SVG 1.1//EN" "http://www.w3.org/Graphics/SVG/1.1/DTD/svg11.dtd">
<svg width="597pt" height="560pt" viewBox="0 0 597 560" version="1.1" xmlns="http://www.w3.org/2000/svg">
<g id="#ffffffff">
<path fill="#ffffff" opacity="1.00" d=" M 248.14 139.95 C 253.07 139.85 257.99 139.89 262.92 139.90 C 262.93 140.77 262.94 142.50 262.95 143.36 C 258.12 143.39 253.29 143.33 248.47 143.46 C 248.36 142.29 248.25 141.12 248.14 139.95 Z" />
<path fill="#ffffff" opacity="1.00" d=" M 321.51 179.00 C 327.51 178.01 333.72 177.56 339.63 179.35 C 333.85 182.67 331.37 189.24 329.54 195.29 C 328.54 198.33 327.80 201.44 327.13 204.58 C 326.69 204.56 325.81 204.53 325.37 204.51 C 322.29 204.40 319.21 204.28 316.13 204.16 C 314.70 204.11 313.27 204.04 311.84 203.99 C 311.04 203.96 309.42 203.89 308.62 203.85 C 309.84 194.43 313.41 184.61 321.51 179.00 Z" />
<path fill="#ffffff" opacity="1.00" d=" M 298.69 194.11 C 299.66 194.05 301.61 193.91 302.59 193.85 C 302.54 196.22 302.52 198.59 302.52 200.96 C 301.25 201.50 299.99 202.06 298.74 202.63 C 298.77 199.79 298.70 196.95 298.69 194.11 Z" />
<path fill="#ffffff" opacity="1.00" d=" M 284.70 196.26 C 286.13 195.79 287.57 195.34 289.02 194.88 C 288.94 198.90 288.98 202.92 288.98 206.94 C 287.98 207.36 286.99 207.77 286.00 208.19 L 285.26 208.17 C 283.92 204.67 285.06 200.17 284.70 196.26 Z" />
<path fill="#ffffff" opacity="1.00" d=" M 457.42 379.50 C 460.25 380.22 461.94 382.58 461.86 385.50 C 459.99 384.69 458.13 383.88 456.26 383.10 C 456.70 381.92 457.02 380.68 457.42 379.50 Z" />
<path fill="#ffffff" opacity="1.00" d=" M 418.43 389.22 C 420.84 388.30 423.34 387.61 425.85 387.01 C 425.80 389.31 425.78 391.62 425.66 393.93 C 423.40 392.15 420.87 390.75 418.43 389.22 Z" />
<path fill="#ffffff" opacity="1.00" d=" M 435.28 388.55 C 437.92 389.37 440.54 390.22 443.14 391.18 C 443.20 391.40 443.33 391.85 443.39 392.07 C 441.93 395.26 438.47 395.93 435.34 396.22 C 435.31 393.66 435.30 391.10 435.28 388.55 Z" />
</g>
<g id="#2a3930ff">
<path fill="#2a3930" opacity="1.00" d=" M 281.05 29.00 C 287.62 30.90 295.11 28.74 299.26 23.20 C 301.02 31.35 302.70 40.98 297.17 48.10 C 298.41 55.97 294.63 63.42 291.09 70.17 C 292.02 63.69 293.23 57.22 293.22 50.64 C 285.33 52.45 277.80 48.13 269.92 49.09 C 266.85 49.30 264.02 50.61 261.27 51.90 C 262.42 55.64 262.01 59.57 260.04 62.97 C 257.76 66.41 259.98 70.61 258.19 74.21 C 255.09 71.06 253.86 66.78 252.48 62.71 C 252.16 63.37 251.53 64.70 251.22 65.36 C 249.37 57.38 245.55 47.64 251.54 40.50 C 251.82 35.46 253.83 29.94 258.71 27.68 C 265.88 24.27 273.88 27.06 281.05 29.00 Z" />
</g>
<g id="#f5c185ff">
<path fill="#f5c185" opacity="1.00" d=" M 261.27 51.90 C 264.02 50.61 266.85 49.30 269.92 49.09 C 277.80 48.13 285.33 52.45 293.22 50.64 C 293.23 57.22 292.02 63.69 291.09 70.17 C 290.15 76.08 290.36 82.32 287.77 87.85 C 286.16 91.59 283.51 95.11 283.85 99.40 C 283.65 103.49 283.31 107.61 282.20 111.58 C 279.88 118.46 278.01 125.51 275.23 132.23 C 271.64 126.28 268.02 120.36 264.40 114.43 C 261.55 109.85 260.36 104.54 258.99 99.39 C 259.70 97.47 260.34 95.52 260.97 93.58 C 264.97 100.18 273.20 104.83 280.86 101.82 C 283.29 101.20 283.09 98.37 283.45 96.41 C 278.37 97.16 272.80 98.44 267.95 96.06 C 265.10 94.13 263.19 91.16 261.16 88.44 C 258.89 85.09 257.99 81.09 256.46 77.39 C 257.13 76.49 257.00 75.62 256.09 74.78 L 255.46 74.75 C 251.95 73.62 250.26 68.70 251.22 65.36 C 251.53 64.70 252.16 63.37 252.48 62.71 C 253.86 66.78 255.09 71.06 258.19 74.21 C 259.98 70.61 257.76 66.41 260.04 62.97 C 262.01 59.57 262.42 55.64 261.27 51.90 Z" />
<path fill="#f5c185" opacity="1.00" d=" M 324.38 171.63 C 325.92 169.65 327.36 167.59 328.71 165.47 C 330.12 167.61 331.17 169.95 332.01 172.37 C 329.46 172.15 326.92 171.91 324.38 171.63 Z" />
<path fill="#f5c185" opacity="1.00" d=" M 200.66 174.69 C 204.27 178.04 208.12 181.61 213.01 182.88 C 217.24 183.20 221.30 181.49 225.42 180.77 C 228.68 184.08 232.07 187.26 235.52 190.39 C 237.02 191.74 238.55 193.06 240.09 194.38 C 246.84 200.06 253.17 206.37 258.02 213.79 C 259.93 214.17 261.98 214.22 263.73 215.17 C 265.66 216.57 266.56 218.96 268.41 220.44 C 270.06 221.44 271.91 222.02 273.69 222.74 C 273.80 223.14 274.02 223.95 274.14 224.35 C 271.31 224.38 268.62 223.49 266.03 222.44 C 267.62 226.55 270.07 230.24 271.73 234.31 C 266.45 234.15 259.88 236.09 255.72 231.89 C 253.20 228.31 251.96 224.04 249.56 220.42 C 246.51 217.16 242.45 215.10 238.78 212.64 C 237.10 211.60 235.42 210.58 233.74 209.56 C 226.50 205.12 219.14 200.83 212.40 195.64 C 208.77 192.84 203.95 191.52 201.13 187.73 C 198.83 183.76 200.32 178.97 200.66 174.69 Z" />
</g>
<g id="#082d36ff">
<path fill="#082d36" opacity="1.00" d=" M 255.46 74.75 L 256.09 74.78 C 257.00 75.62 257.13 76.49 256.46 77.39 C 256.21 76.73 255.71 75.41 255.46 74.75 Z" />
<path fill="#082d36" opacity="1.00" d=" M 232.03 221.86 C 235.50 224.15 239.56 225.18 243.54 226.22 C 240.30 229.35 236.21 231.28 231.86 232.31 C 231.63 228.82 231.96 225.34 232.03 221.86 Z" />
<path fill="#082d36" opacity="1.00" d=" M 275.01 234.49 C 276.71 234.66 278.40 234.88 280.10 235.09 C 287.87 235.85 295.70 235.23 303.50 235.42 C 306.01 257.28 308.87 279.10 310.94 301.00 C 311.80 309.34 310.81 317.71 309.31 325.92 C 305.84 345.13 304.63 364.63 302.99 384.06 C 302.35 391.17 302.19 398.32 301.87 405.45 C 301.38 405.55 300.40 405.73 299.91 405.82 C 305.50 407.12 311.15 408.21 316.81 409.12 C 313.86 412.30 312.28 416.49 312.81 420.84 C 301.98 420.81 290.98 421.81 280.27 419.77 C 281.37 415.49 282.33 409.48 278.20 406.55 C 277.06 406.43 275.92 406.31 274.78 406.21 C 274.97 389.14 275.98 372.09 276.66 355.04 C 277.18 345.32 277.10 335.56 278.34 325.89 C 279.28 318.59 280.62 311.29 280.59 303.91 C 280.24 301.65 279.23 299.56 278.53 297.40 C 273.80 283.75 270.88 269.56 268.25 255.38 C 275.37 251.17 274.89 241.68 275.01 234.49 Z" />
<path fill="#082d36" opacity="1.00" d=" M 239.10 404.85 C 243.85 404.95 248.61 404.99 253.36 404.99 C 254.84 408.40 255.78 412.00 256.86 415.55 C 258.95 421.53 260.92 427.56 262.16 433.79 C 258.69 429.67 252.83 429.61 247.91 430.07 C 245.13 430.23 242.60 431.45 240.18 432.72 C 238.68 425.11 238.18 417.36 237.83 409.63 C 237.75 407.93 238.36 406.34 239.10 404.85 Z" />
</g>
<g id="#e2a971ff">
<path fill="#e2a971" opacity="1.00" d=" M 261.16 88.44 C 263.19 91.16 265.10 94.13 267.95 96.06 C 272.80 98.44 278.37 97.16 283.45 96.41 C 283.09 98.37 283.29 101.20 280.86 101.82 C 273.20 104.83 264.97 100.18 260.97 93.58 C 259.94 92.01 261.06 90.10 261.16 88.44 Z" />
</g>
<g id="#72deffff">
<path fill="#72deff" opacity="1.00" d=" M 249.48 104.37 C 252.83 103.06 255.76 100.93 258.99 99.39 C 260.36 104.54 261.55 109.85 264.40 114.43 C 268.02 120.36 271.64 126.28 275.23 132.23 C 274.38 134.39 274.27 136.73 274.33 139.03 C 274.51 149.93 275.34 160.82 275.13 171.73 C 274.53 171.85 273.34 172.10 272.74 172.23 C 272.53 160.14 272.65 148.06 272.62 135.97 C 272.75 133.11 271.45 130.50 269.93 128.17 C 267.02 123.66 264.54 118.87 261.26 114.61 C 258.23 117.41 255.24 120.24 252.19 123.01 C 251.17 116.81 251.07 110.47 249.48 104.37 Z" />
<path fill="#72deff" opacity="1.00" d=" M 283.85 99.40 C 285.82 100.85 287.75 102.34 289.72 103.79 C 289.33 109.93 289.09 116.09 288.59 122.23 C 286.06 118.93 284.04 115.29 282.20 111.58 C 283.31 107.61 283.65 103.49 283.85 99.40 Z" />
<path fill="#72deff" opacity="1.00" d=" M 237.40 142.89 C 242.38 156.33 244.06 170.78 244.00 185.05 C 241.98 185.59 239.95 186.08 237.93 186.58 C 238.63 189.18 239.37 191.78 240.09 194.38 C 238.55 193.06 237.02 191.74 235.52 190.39 C 235.87 176.40 237.18 162.41 236.59 148.42 C 236.84 146.57 237.11 144.73 237.40 142.89 Z" />
<path fill="#72deff" opacity="1.00" d=" M 324.45 152.87 L 325.13 152.18 C 327.48 154.92 329.53 157.90 331.34 161.02 C 330.47 162.51 329.63 164.01 328.71 165.47 C 327.36 167.59 325.92 169.65 324.38 171.63 C 318.88 172.80 313.20 172.60 307.67 173.59 C 308.13 171.86 308.58 170.10 309.47 168.54 C 315.16 164.00 319.29 157.95 324.45 152.87 Z" />
<path fill="#72deff" opacity="1.00" d=" M 202.03 159.31 C 202.41 159.57 203.16 160.09 203.53 160.35 C 206.75 162.53 209.94 164.89 213.65 166.18 C 217.76 167.60 222.10 168.18 226.34 169.12 C 225.71 172.97 225.66 176.88 225.42 180.77 C 221.30 181.49 217.24 183.20 213.01 182.88 C 208.12 181.61 204.27 178.04 200.66 174.69 C 199.61 173.75 198.72 172.47 199.10 170.99 C 199.41 166.96 200.53 163.05 202.03 159.31 Z" />
<path fill="#72deff" opacity="1.00" d=" M 230.98 222.70 C 231.11 218.19 232.34 213.82 233.74 209.56 C 235.42 210.58 237.10 211.60 238.78 212.64 C 236.39 215.61 234.37 218.86 232.03 221.86 L 230.98 222.70 Z" />
</g>
<g id="#45c8ffff">
<path fill="#45c8ff" opacity="1.00" d=" M 289.72 103.79 C 294.71 104.00 299.97 104.84 304.04 107.96 C 307.64 110.68 309.26 115.06 310.93 119.09 C 315.42 130.36 322.06 140.83 324.45 152.87 C 319.29 157.95 315.16 164.00 309.47 168.54 C 307.00 163.94 304.61 159.31 301.87 154.88 C 301.39 161.57 301.23 168.27 300.96 174.97 L 299.56 175.21 C 291.93 171.79 283.42 170.33 275.13 171.73 C 275.34 160.82 274.51 149.93 274.33 139.03 C 274.27 136.73 274.38 134.39 275.23 132.23 C 278.01 125.51 279.88 118.46 282.20 111.58 C 284.04 115.29 286.06 118.93 288.59 122.23 C 289.09 116.09 289.33 109.93 289.72 103.79 Z" />
<path fill="#45c8ff" opacity="1.00" d=" M 223.70 111.66 C 231.77 107.79 240.44 104.67 249.48 104.37 C 251.07 110.47 251.17 116.81 252.19 123.01 C 255.24 120.24 258.23 117.41 261.26 114.61 C 264.54 118.87 267.02 123.66 269.93 128.17 C 271.45 130.50 272.75 133.11 272.62 135.97 C 272.65 148.06 272.53 160.14 272.74 172.23 C 263.91 174.21 255.40 178.03 248.36 183.76 C 246.91 184.21 245.45 184.64 244.00 185.05 C 244.06 170.78 242.38 156.33 237.40 142.89 C 237.11 144.73 236.84 146.57 236.59 148.42 C 233.71 155.58 229.74 162.22 226.34 169.12 C 222.10 168.18 217.76 167.60 213.65 166.18 C 209.94 164.89 206.75 162.53 203.53 160.35 C 206.78 147.77 210.85 135.42 214.98 123.10 C 216.50 118.47 219.14 113.86 223.70 111.66 M 248.14 139.95 C 248.25 141.12 248.36 142.29 248.47 143.46 C 253.29 143.33 258.12 143.39 262.95 143.36 C 262.94 142.50 262.93 140.77 262.92 139.90 C 257.99 139.89 253.07 139.85 248.14 139.95 Z" />
<path fill="#45c8ff" opacity="1.00" d=" M 232.03 221.86 C 234.37 218.86 236.39 215.61 238.78 212.64 C 242.45 215.10 246.51 217.16 249.56 220.42 C 251.96 224.04 253.20 228.31 255.72 231.89 C 253.99 230.45 252.10 229.23 250.35 227.83 C 248.07 227.30 245.79 226.80 243.54 226.22 C 239.56 225.18 235.50 224.15 232.03 221.86 Z" />
</g>
<g id="#662d91ff">
<path fill="#662d91" opacity="1.00" d=" M 275.13 171.73 C 283.42 170.33 291.93 171.79 299.56 175.21 C 301.86 176.36 304.07 177.70 306.38 178.85 C 293.29 179.08 280.18 178.59 267.09 179.10 C 260.77 180.34 254.65 182.40 248.36 183.76 C 255.40 178.03 263.91 174.21 272.74 172.23 C 273.34 172.10 274.53 171.85 275.13 171.73 Z" />
</g>
<g id="#bcbec0ff">
<path fill="#bcbec0" opacity="1.00" d=" M 307.67 173.59 C 313.20 172.60 318.88 172.80 324.38 171.63 C 326.92 171.91 329.46 172.15 332.01 172.37 C 339.74 172.98 347.26 175.38 354.16 178.88 C 349.32 178.92 344.44 178.61 339.63 179.35 C 333.72 177.56 327.51 178.01 321.51 179.00 C 316.47 178.95 311.43 178.88 306.38 178.85 C 304.07 177.70 301.86 176.36 299.56 175.21 L 300.96 174.97 C 303.20 174.53 305.42 174.00 307.67 173.59 Z" />
<path fill="#bcbec0" opacity="1.00" d=" M 352.86 189.03 C 354.14 189.30 356.30 188.44 356.66 190.29 C 357.05 194.61 356.70 198.97 356.79 203.31 C 355.38 202.73 353.97 202.16 352.57 201.59 C 352.45 197.40 352.36 193.20 352.86 189.03 Z" />
</g>
<g id="#09af4fff">
<path fill="#09af4f" opacity="1.00" d=" M 248.36 183.76 C 254.65 182.40 260.77 180.34 267.09 179.10 C 269.43 191.02 270.94 203.09 273.07 215.05 C 273.52 217.59 273.64 220.17 273.69 222.74 C 271.91 222.02 270.06 221.44 268.41 220.44 C 266.56 218.96 265.66 216.57 263.73 215.17 C 261.98 214.22 259.93 214.17 258.02 213.79 C 253.17 206.37 246.84 200.06 240.09 194.38 C 239.37 191.78 238.63 189.18 237.93 186.58 C 239.95 186.08 241.98 185.59 244.00 185.05 C 245.45 184.64 246.91 184.21 248.36 183.76 Z" />
<path fill="#09af4f" opacity="1.00" d=" M 266.03 222.44 C 268.62 223.49 271.31 224.38 274.14 224.35 C 275.14 228.38 276.41 232.67 280.10 235.09 C 278.40 234.88 276.71 234.66 275.01 234.49 C 273.91 234.40 272.82 234.32 271.73 234.31 C 270.07 230.24 267.62 226.55 266.03 222.44 Z" />
<path fill="#09af4f" opacity="1.00" d=" M 355.75 366.09 C 370.14 364.77 384.58 366.60 399.00 366.20 C 418.53 366.30 438.08 365.99 457.60 366.36 L 457.84 366.72 L 458.19 366.74 C 467.45 367.22 476.74 367.06 486.01 366.67 C 486.35 367.01 487.04 367.69 487.38 368.03 C 487.85 371.66 483.45 370.70 481.22 370.83 C 432.04 370.84 382.86 370.67 333.69 370.91 C 335.79 391.67 338.85 412.33 341.24 433.05 C 341.87 438.04 342.01 443.51 345.31 447.61 C 348.64 452.21 354.55 454.03 360.02 454.01 C 390.01 453.99 420.00 453.99 449.99 454.01 C 455.58 454.13 461.22 453.46 466.75 454.51 C 463.31 456.88 459.20 458.13 455.03 458.01 C 421.02 457.99 387.02 457.99 353.02 458.01 C 347.31 458.22 341.28 455.90 338.09 450.98 C 335.58 447.48 335.22 443.08 334.72 438.95 C 334.04 433.36 333.40 427.77 332.71 422.18 C 332.49 420.45 332.22 418.73 331.93 417.02 C 330.03 401.63 328.00 386.26 326.15 370.86 C 324.53 370.81 322.90 370.87 321.30 370.64 C 319.59 370.34 320.19 368.24 320.02 367.05 L 321.15 367.03 C 330.43 366.98 339.71 366.96 348.99 367.05 C 351.28 367.11 353.53 366.65 355.75 366.09 Z" />
</g>
<g id="#29c56bff">
<path fill="#29c56b" opacity="1.00" d=" M 267.09 179.10 C 280.18 178.59 293.29 179.08 306.38 178.85 C 311.43 178.88 316.47 178.95 321.51 179.00 C 313.41 184.61 309.84 194.43 308.62 203.85 C 309.42 203.89 311.04 203.96 311.84 203.99 C 311.85 211.13 311.79 218.27 311.90 225.41 C 313.28 225.38 314.67 225.36 316.06 225.37 C 316.15 218.30 316.08 211.23 316.13 204.16 C 319.21 204.28 322.29 204.40 325.37 204.51 C 325.55 210.97 325.14 217.44 325.52 223.89 C 325.31 226.36 329.71 226.29 329.57 223.93 C 329.82 214.39 329.70 204.83 329.54 195.29 C 331.37 189.24 333.85 182.67 339.63 179.35 C 344.44 178.61 349.32 178.92 354.16 178.88 C 360.04 178.92 365.92 178.90 371.81 178.90 C 369.72 195.24 367.77 211.60 365.66 227.93 C 365.12 232.12 361.20 235.47 356.99 235.39 C 339.16 235.48 321.33 235.40 303.50 235.42 C 295.70 235.23 287.87 235.85 280.10 235.09 C 276.41 232.67 275.14 228.38 274.14 224.35 C 274.02 223.95 273.80 223.14 273.69 222.74 C 273.64 220.17 273.52 217.59 273.07 215.05 C 270.94 203.09 269.43 191.02 267.09 179.10 M 284.70 196.26 C 285.06 200.17 283.92 204.67 285.26 208.17 L 286.00 208.19 C 285.77 208.42 285.29 208.87 285.05 209.10 C 284.25 214.41 284.82 219.83 284.81 225.18 C 286.17 225.15 287.53 225.12 288.89 225.09 C 289.04 219.04 288.93 212.99 288.98 206.94 C 288.98 202.92 288.94 198.90 289.02 194.88 C 288.68 192.94 289.96 189.02 286.93 188.96 C 283.28 189.04 285.14 193.95 284.70 196.26 M 298.41 190.32 C 297.93 194.49 298.25 198.70 298.22 202.89 C 298.39 209.91 298.07 216.94 298.36 223.96 C 298.14 226.29 302.63 226.34 302.45 223.94 C 302.67 216.28 302.47 208.62 302.52 200.96 C 302.52 198.59 302.54 196.22 302.59 193.85 C 302.47 192.24 302.34 190.63 302.21 189.02 C 300.92 189.34 298.69 188.41 298.41 190.32 M 339.16 190.08 C 338.80 192.50 338.98 194.96 338.98 197.39 C 339.00 206.69 338.89 216.00 339.05 225.30 C 340.41 225.39 341.77 225.43 343.14 225.40 C 343.35 216.43 343.19 207.47 343.24 198.50 C 343.24 195.65 343.39 192.78 343.09 189.94 C 342.14 188.87 339.69 188.43 339.16 190.08 M 352.86 189.03 C 352.36 193.20 352.45 197.40 352.57 201.59 C 352.58 209.55 352.36 217.52 352.71 225.49 C 353.97 225.44 356.91 226.12 356.72 223.95 C 356.97 217.08 356.75 210.19 356.79 203.31 C 356.70 198.97 357.05 194.61 356.66 190.29 C 356.30 188.44 354.14 189.30 352.86 189.03 Z" />
<path fill="#29c56b" opacity="1.00" d=" M 333.69 370.91 C 382.86 370.67 432.04 370.84 481.22 370.83 C 478.58 391.89 475.98 412.96 473.25 434.02 C 472.95 436.47 472.73 438.93 472.45 441.39 C 472.02 446.25 470.06 450.91 466.75 454.51 C 461.22 453.46 455.58 454.13 449.99 454.01 C 420.00 453.99 390.01 453.99 360.02 454.01 C 354.55 454.03 348.64 452.21 345.31 447.61 C 342.01 443.51 341.87 438.04 341.24 433.05 C 338.85 412.33 335.79 391.67 333.69 370.91 M 346.12 382.20 C 345.21 385.42 345.70 388.84 345.63 392.15 C 345.58 395.41 345.58 398.67 345.59 401.93 C 345.83 404.59 344.91 407.90 347.00 410.01 C 349.08 412.20 353.31 410.97 353.82 407.98 C 354.33 402.97 353.91 397.92 354.01 392.89 C 353.95 389.35 354.40 385.74 353.60 382.27 C 352.37 379.19 347.38 379.12 346.12 382.20 M 366.13 380.20 C 363.01 381.47 363.62 385.32 363.54 388.02 C 363.75 394.69 363.24 401.38 363.78 408.03 C 364.50 412.08 371.05 412.06 371.75 408.01 C 372.24 400.31 371.89 392.56 371.95 384.85 C 372.46 381.72 369.11 378.76 366.13 380.20 M 384.13 380.18 C 380.94 381.40 381.55 385.31 381.47 388.05 C 381.69 394.68 381.17 401.34 381.72 407.95 C 382.31 411.78 388.31 412.21 389.55 408.56 C 390.32 404.10 389.81 399.51 389.79 395.01 C 389.54 391.01 390.25 387.00 389.71 383.03 C 389.27 380.62 386.34 379.16 384.13 380.18 M 399.59 383.32 C 399.19 389.88 399.57 396.47 399.42 403.05 C 399.59 405.39 398.87 408.35 400.91 410.10 C 403.02 412.16 407.09 410.92 407.63 408.01 C 408.02 405.25 407.84 402.46 407.86 399.68 C 407.69 394.12 408.16 388.52 407.63 382.98 C 406.89 378.75 399.95 379.02 399.59 383.32 M 417.66 382.69 C 417.21 384.98 417.38 387.33 417.31 389.65 C 417.35 391.02 417.39 392.41 417.44 393.79 C 417.51 398.62 417.00 403.50 417.66 408.31 C 418.61 411.84 424.17 412.05 425.40 408.60 C 426.25 404.33 425.46 399.92 425.98 395.60 C 425.90 395.18 425.74 394.35 425.66 393.93 C 425.78 391.62 425.80 389.31 425.85 387.01 C 425.61 384.90 426.15 382.25 424.21 380.80 C 422.12 378.95 418.40 379.99 417.66 382.69 M 436.83 380.84 C 434.61 382.75 435.51 385.99 435.28 388.55 C 435.30 391.10 435.31 393.66 435.34 396.22 C 435.39 400.29 434.96 404.42 435.61 408.46 C 436.80 412.16 442.96 411.84 443.52 407.92 C 443.92 402.85 443.68 397.75 443.79 392.67 L 443.50 391.92 C 443.67 391.68 443.99 391.20 444.16 390.97 C 443.70 388.33 443.76 385.65 443.50 383.00 C 443.00 380.09 438.97 378.85 436.83 380.84 M 453.45 387.75 C 452.93 392.47 453.41 397.25 453.22 401.99 C 453.33 404.37 452.92 406.93 453.88 409.17 C 455.69 412.33 461.15 411.37 461.50 407.65 C 461.99 400.28 461.30 392.87 461.86 385.50 C 461.94 382.58 460.25 380.22 457.42 379.50 C 453.52 380.34 452.61 384.32 453.45 387.75 M 472.20 379.46 C 469.83 401.23 467.33 422.98 464.98 444.74 C 465.74 444.81 467.26 444.96 468.03 445.03 C 470.47 423.27 472.90 401.52 475.31 379.76 C 474.53 379.69 472.98 379.54 472.20 379.46 M 345.71 420.96 C 345.46 426.33 345.72 431.71 345.62 437.09 C 345.71 440.01 345.24 443.06 346.15 445.89 C 347.61 448.84 352.33 448.72 353.61 445.68 C 354.44 442.10 353.93 438.38 353.98 434.74 C 354.09 429.79 354.01 424.83 354.02 419.88 C 352.84 417.58 350.61 416.31 347.96 417.02 C 346.96 418.16 345.57 419.25 345.71 420.96 M 363.77 419.92 C 363.30 424.05 363.66 428.22 363.57 432.37 C 363.66 436.57 363.28 440.80 363.79 444.98 C 364.51 449.00 370.98 449.01 371.74 445.01 C 372.28 440.43 371.86 435.79 371.96 431.19 C 371.99 427.71 372.03 424.23 371.82 420.76 C 372.59 418.80 370.09 416.15 368.10 416.94 C 366.14 416.70 364.16 417.93 363.77 419.92 M 381.70 420.01 C 381.11 427.46 381.85 434.96 381.32 442.43 C 381.64 444.43 381.85 447.01 384.14 447.76 C 386.12 448.76 388.14 447.44 389.42 445.97 L 389.64 446.03 C 390.06 437.38 390.06 428.69 389.71 420.05 C 389.13 415.86 382.34 415.83 381.70 420.01 M 401.38 417.48 C 399.12 418.83 399.46 421.75 399.40 423.99 C 399.56 430.78 399.17 437.58 399.65 444.36 C 399.41 448.13 405.41 449.37 407.21 446.17 C 408.30 443.51 407.71 440.50 407.82 437.71 C 407.77 432.11 408.02 426.50 407.76 420.91 C 407.92 417.76 403.92 415.63 401.38 417.48 M 419.29 417.46 C 417.35 418.57 417.44 421.07 417.38 423.01 C 417.37 428.02 417.34 433.02 417.47 438.03 L 418.74 437.24 C 417.67 440.29 416.17 444.52 418.92 447.11 C 421.32 449.36 425.78 447.42 425.68 444.11 C 425.88 438.17 425.81 432.22 425.86 426.27 C 425.79 424.04 425.92 421.78 425.46 419.58 C 424.74 417.04 421.43 416.05 419.29 417.46 M 437.30 417.45 C 434.33 419.33 435.58 423.39 435.24 426.32 C 435.12 432.17 435.32 438.03 435.38 443.89 C 435.23 446.70 438.39 448.94 441.00 447.80 C 443.89 446.73 444.19 442.99 443.47 440.46 C 443.88 433.94 443.78 427.39 443.63 420.87 C 443.82 417.73 439.83 415.72 437.30 417.45 M 453.44 420.05 C 452.94 426.95 453.43 433.90 453.22 440.82 C 453.41 442.96 452.84 445.69 454.86 447.17 C 456.92 448.96 460.56 447.95 461.36 445.32 C 461.89 442.54 461.61 439.68 461.69 436.88 C 461.42 431.08 462.07 425.23 461.35 419.47 C 460.20 415.76 453.94 416.13 453.44 420.05 Z" />
</g>
<g id="#e2e2e2ff">
<path fill="#e2e2e2" opacity="1.00" d=" M 284.70 196.26 C 285.14 193.95 283.28 189.04 286.93 188.96 C 289.96 189.02 288.68 192.94 289.02 194.88 C 287.57 195.34 286.13 195.79 284.70 196.26 Z" />
<path fill="#e2e2e2" opacity="1.00" d=" M 298.41 190.32 C 298.69 188.41 300.92 189.34 302.21 189.02 C 302.34 190.63 302.47 192.24 302.59 193.85 C 301.61 193.91 299.66 194.05 298.69 194.11 C 298.70 196.95 298.77 199.79 298.74 202.63 L 298.22 202.89 C 298.25 198.70 297.93 194.49 298.41 190.32 Z" />
<path fill="#e2e2e2" opacity="1.00" d=" M 339.16 190.08 C 339.69 188.43 342.14 188.87 343.09 189.94 C 343.39 192.78 343.24 195.65 343.24 198.50 C 341.82 198.13 340.40 197.76 338.98 197.39 C 338.98 194.96 338.80 192.50 339.16 190.08 Z" />
</g>
<g id="#003185ff">
<path fill="#003185" opacity="1.00" d=" M 327.13 204.58 C 327.80 201.44 328.54 198.33 329.54 195.29 C 329.70 204.83 329.82 214.39 329.57 223.93 C 329.71 226.29 325.31 226.36 325.52 223.89 C 325.14 217.44 325.55 210.97 325.37 204.51 C 325.81 204.53 326.69 204.56 327.13 204.58 Z" />
<path fill="#003185" opacity="1.00" d=" M 338.98 197.39 C 340.40 197.76 341.82 198.13 343.24 198.50 C 343.19 207.47 343.35 216.43 343.14 225.40 C 341.77 225.43 340.41 225.39 339.05 225.30 C 338.89 216.00 339.00 206.69 338.98 197.39 Z" />
<path fill="#003185" opacity="1.00" d=" M 298.74 202.63 C 299.99 202.06 301.25 201.50 302.52 200.96 C 302.47 208.62 302.67 216.28 302.45 223.94 C 302.63 226.34 298.14 226.29 298.36 223.96 C 298.07 216.94 298.39 209.91 298.22 202.89 L 298.74 202.63 Z" />
<path fill="#003185" opacity="1.00" d=" M 352.57 201.59 C 353.97 202.16 355.38 202.73 356.79 203.31 C 356.75 210.19 356.97 217.08 356.72 223.95 C 356.91 226.12 353.97 225.44 352.71 225.49 C 352.36 217.52 352.58 209.55 352.57 201.59 Z" />
<path fill="#003185" opacity="1.00" d=" M 311.84 203.99 C 313.27 204.04 314.70 204.11 316.13 204.16 C 316.08 211.23 316.15 218.30 316.06 225.37 C 314.67 225.36 313.28 225.38 311.90 225.41 C 311.79 218.27 311.85 211.13 311.84 203.99 Z" />
<path fill="#003185" opacity="1.00" d=" M 286.00 208.19 C 286.99 207.77 287.98 207.36 288.98 206.94 C 288.93 212.99 289.04 219.04 288.89 225.09 C 287.53 225.12 286.17 225.15 284.81 225.18 C 284.82 219.83 284.25 214.41 285.05 209.10 C 285.29 208.87 285.77 208.42 286.00 208.19 Z" />
</g>
<g id="#144956ff">
<path fill="#144956" opacity="1.00" d=" M 243.54 226.22 C 245.79 226.80 248.07 227.30 250.35 227.83 C 252.10 229.23 253.99 230.45 255.72 231.89 C 259.88 236.09 266.45 234.15 271.73 234.31 C 272.82 234.32 273.91 234.40 275.01 234.49 C 274.89 241.68 275.37 251.17 268.25 255.38 C 267.08 255.71 265.91 256.01 264.74 256.32 C 263.58 305.89 262.29 355.46 261.06 405.03 C 258.49 405.01 255.93 405.00 253.36 404.99 C 248.61 404.99 243.85 404.95 239.10 404.85 C 236.41 404.81 233.72 404.75 231.04 404.70 C 227.45 382.03 226.70 358.91 228.45 336.03 C 231.44 301.55 231.88 266.90 231.86 232.31 C 236.21 231.28 240.30 229.35 243.54 226.22 Z" />
</g>
<g id="#8cc63fff">
<path fill="#8cc63f" opacity="1.00" d=" M 380.31 302.21 C 382.26 300.02 385.46 301.15 388.01 301.04 C 394.41 300.96 400.53 304.64 403.89 310.00 C 404.65 314.14 401.24 317.76 401.00 321.90 C 400.30 325.25 403.14 327.66 405.27 329.75 C 407.16 331.71 409.93 333.01 412.70 332.40 C 418.63 330.69 423.70 327.08 429.11 324.26 C 432.68 322.42 436.42 324.71 439.46 326.54 C 434.50 326.81 428.18 327.95 426.22 333.24 C 424.70 340.73 427.06 349.41 422.20 355.99 C 417.34 355.96 412.48 355.96 407.62 355.97 C 405.51 353.36 403.92 350.01 400.88 348.37 C 396.17 347.99 391.74 350.22 387.82 352.58 C 389.62 348.06 393.86 344.22 393.29 339.02 C 393.01 333.82 389.23 329.58 384.74 327.35 C 380.58 324.51 375.28 323.39 370.38 324.60 C 366.58 326.68 362.79 328.84 358.61 330.11 C 363.74 324.63 368.93 318.97 372.03 312.04 C 373.72 307.98 377.21 305.16 380.31 302.21 Z" />
</g>
<g id="#f68e1eff">
<path fill="#f68e1e" opacity="1.00" d=" M 467.14 315.20 C 472.84 313.73 481.14 315.50 482.85 321.96 C 483.24 327.60 482.01 333.26 482.83 338.91 C 482.83 344.80 485.63 350.21 485.76 356.07 C 473.76 355.81 461.75 356.03 449.75 355.98 C 445.24 349.42 444.92 341.26 444.38 333.61 C 444.40 330.38 442.03 328.09 439.46 326.54 C 436.42 324.71 432.68 322.42 429.11 324.26 C 423.70 327.08 418.63 330.69 412.70 332.40 C 415.17 326.68 418.61 320.23 424.99 318.26 C 428.09 317.40 431.84 317.38 434.51 319.41 C 438.18 322.13 442.09 324.53 445.97 326.94 C 449.90 327.80 454.19 328.17 458.12 327.17 C 463.40 325.09 462.26 317.54 467.14 315.20 Z" />
</g>
<g id="#00b8c4ff">
<path fill="#00b8c4" opacity="1.00" d=" M 370.38 324.60 C 375.28 323.39 380.58 324.51 384.74 327.35 C 389.23 329.58 393.01 333.82 393.29 339.02 C 393.86 344.22 389.62 348.06 387.82 352.58 C 386.93 353.71 386.04 354.83 385.15 355.96 C 374.60 355.95 364.05 355.99 353.50 355.94 C 350.47 352.74 345.98 352.03 342.02 350.58 C 338.23 349.28 333.38 349.63 330.73 346.12 C 328.17 342.36 327.70 337.03 329.88 333.01 C 331.46 330.23 335.00 329.72 337.88 330.28 C 344.67 331.46 351.96 332.57 358.61 330.11 C 362.79 328.84 366.58 326.68 370.38 324.60 Z" />
<path fill="#00b8c4" opacity="1.00" d=" M 346.12 382.20 C 347.38 379.12 352.37 379.19 353.60 382.27 C 354.40 385.74 353.95 389.35 354.01 392.89 C 352.74 394.42 351.46 395.96 350.13 397.43 C 348.64 395.66 347.15 393.89 345.63 392.15 C 345.70 388.84 345.21 385.42 346.12 382.20 Z" />
<path fill="#00b8c4" opacity="1.00" d=" M 456.26 383.10 C 458.13 383.88 459.99 384.69 461.86 385.50 C 461.30 392.87 461.99 400.28 461.50 407.65 C 461.15 411.37 455.69 412.33 453.88 409.17 C 452.92 406.93 453.33 404.37 453.22 401.99 C 453.41 397.25 452.93 392.47 453.45 387.75 C 454.37 386.19 455.36 384.67 456.26 383.10 Z" />
<path fill="#00b8c4" opacity="1.00" d=" M 417.31 389.65 C 417.59 389.54 418.15 389.33 418.43 389.22 C 420.87 390.75 423.40 392.15 425.66 393.93 C 425.74 394.35 425.90 395.18 425.98 395.60 C 423.33 394.24 420.41 393.67 417.44 393.79 C 417.39 392.41 417.35 391.02 417.31 389.65 Z" />
<path fill="#00b8c4" opacity="1.00" d=" M 443.39 392.07 L 443.50 391.92 L 443.79 392.67 C 443.68 397.75 443.92 402.85 443.52 407.92 C 442.96 411.84 436.80 412.16 435.61 408.46 C 434.96 404.42 435.39 400.29 435.34 396.22 C 438.47 395.93 441.93 395.26 443.39 392.07 Z" />
<path fill="#00b8c4" opacity="1.00" d=" M 419.29 417.46 C 421.43 416.05 424.74 417.04 425.46 419.58 C 425.92 421.78 425.79 424.04 425.86 426.27 C 421.73 428.56 420.55 433.25 418.74 437.24 L 417.47 438.03 C 417.34 433.02 417.37 428.02 417.38 423.01 C 417.44 421.07 417.35 418.57 419.29 417.46 Z" />
<path fill="#00b8c4" opacity="1.00" d=" M 437.30 417.45 C 439.83 415.72 443.82 417.73 443.63 420.87 C 443.78 427.39 443.88 433.94 443.47 440.46 C 440.80 435.69 440.15 429.49 435.24 426.32 C 435.58 423.39 434.33 419.33 437.30 417.45 Z" />
<path fill="#00b8c4" opacity="1.00" d=" M 453.44 420.05 C 453.94 416.13 460.20 415.76 461.35 419.47 C 462.07 425.23 461.42 431.08 461.69 436.88 C 459.12 438.68 456.24 439.97 453.22 440.82 C 453.43 433.90 452.94 426.95 453.44 420.05 Z" />
<path fill="#00b8c4" opacity="1.00" d=" M 399.65 444.36 C 402.47 442.27 405.27 440.13 407.82 437.71 C 407.71 440.50 408.30 443.51 407.21 446.17 C 405.41 449.37 399.41 448.13 399.65 444.36 Z" />
</g>
<g id="#eb524fff">
<path fill="#eb524f" opacity="1.00" d=" M 426.22 333.24 C 428.18 327.95 434.50 326.81 439.46 326.54 C 442.03 328.09 444.40 330.38 444.38 333.61 C 444.92 341.26 445.24 349.42 449.75 355.98 C 440.57 355.96 431.38 355.93 422.20 355.99 C 427.06 349.41 424.70 340.73 426.22 333.24 Z" />
<path fill="#eb524f" opacity="1.00" d=" M 387.82 352.58 C 391.74 350.22 396.17 347.99 400.88 348.37 C 403.92 350.01 405.51 353.36 407.62 355.97 C 400.13 355.96 392.64 355.96 385.15 355.96 C 386.04 354.83 386.93 353.71 387.82 352.58 Z" />
<path fill="#eb524f" opacity="1.00" d=" M 399.59 383.32 C 399.95 379.02 406.89 378.75 407.63 382.98 C 408.16 388.52 407.69 394.12 407.86 399.68 C 405.16 401.08 402.35 402.24 399.42 403.05 C 399.57 396.47 399.19 389.88 399.59 383.32 Z" />
<path fill="#eb524f" opacity="1.00" d=" M 417.66 382.69 C 418.40 379.99 422.12 378.95 424.21 380.80 C 426.15 382.25 425.61 384.90 425.85 387.01 C 423.34 387.61 420.84 388.30 418.43 389.22 C 418.15 389.33 417.59 389.54 417.31 389.65 C 417.38 387.33 417.21 384.98 417.66 382.69 Z" />
<path fill="#eb524f" opacity="1.00" d=" M 436.83 380.84 C 438.97 378.85 443.00 380.09 443.50 383.00 C 443.76 385.65 443.70 388.33 444.16 390.97 C 443.99 391.20 443.67 391.68 443.50 391.92 L 443.39 392.07 C 443.33 391.85 443.20 391.40 443.14 391.18 C 440.54 390.22 437.92 389.37 435.28 388.55 C 435.51 385.99 434.61 382.75 436.83 380.84 Z" />
<path fill="#eb524f" opacity="1.00" d=" M 453.45 387.75 C 452.61 384.32 453.52 380.34 457.42 379.50 C 457.02 380.68 456.70 381.92 456.26 383.10 C 455.36 384.67 454.37 386.19 453.45 387.75 Z" />
</g>
<g id="#4fbe86ff">
<path fill="#4fbe86" opacity="1.00" d=" M 179.84 343.86 C 185.16 341.61 191.05 344.36 194.82 348.23 C 201.61 354.52 203.07 364.74 210.72 370.31 C 216.77 374.67 220.60 382.50 218.87 389.96 C 216.78 399.78 213.08 409.20 208.76 418.24 C 207.16 418.24 205.57 418.23 203.99 418.24 C 202.86 404.97 201.43 391.56 197.22 378.86 C 197.56 384.08 198.92 389.16 199.62 394.33 C 200.68 402.25 201.43 410.24 201.29 418.24 C 198.84 418.23 196.39 418.23 193.95 418.23 C 186.10 408.78 178.73 398.77 173.39 387.65 C 169.17 379.13 168.22 369.21 169.75 359.89 C 170.98 353.65 173.62 346.64 179.84 343.86 Z" />
</g>
<g id="#039c43ff">
<path fill="#039c43" opacity="1.00" d=" M 321.44 365.32 C 317.69 363.26 318.66 356.82 322.91 356.10 C 333.10 355.76 343.31 356.09 353.50 355.94 C 364.05 355.99 374.60 355.95 385.15 355.96 C 392.64 355.96 400.13 355.96 407.62 355.97 C 412.48 355.96 417.34 355.96 422.20 355.99 C 431.38 355.93 440.57 355.96 449.75 355.98 C 461.75 356.03 473.76 355.81 485.76 356.07 C 490.65 357.37 490.18 365.47 485.11 366.07 C 476.16 367.23 467.05 366.82 458.05 366.39 L 457.60 366.36 C 438.08 365.99 418.53 366.30 399.00 366.20 C 384.58 366.60 370.14 364.77 355.75 366.09 C 348.17 365.94 340.60 366.00 333.03 366.01 C 329.16 366.00 325.21 366.37 321.44 365.32 Z" />
</g>
<g id="#7fd5a3ff">
<path fill="#7fd5a3" opacity="1.00" d=" M 321.44 365.32 C 325.21 366.37 329.16 366.00 333.03 366.01 C 340.60 366.00 348.17 365.94 355.75 366.09 C 353.53 366.65 351.28 367.11 348.99 367.05 C 339.71 366.96 330.43 366.98 321.15 367.03 C 321.22 366.61 321.37 365.75 321.44 365.32 Z" />
</g>
<g id="#7ed39eff">
<path fill="#7ed39e" opacity="1.00" d=" M 457.60 366.36 L 458.05 366.39 L 458.19 366.74 L 457.84 366.72 L 457.60 366.36 Z" />
</g>
<g id="#399f6cff">
<path fill="#399f6c" opacity="1.00" d=" M 197.22 378.86 C 201.43 391.56 202.86 404.97 203.99 418.24 C 203.31 418.24 201.96 418.24 201.29 418.24 C 201.43 410.24 200.68 402.25 199.62 394.33 C 198.92 389.16 197.56 384.08 197.22 378.86 Z" />
</g>
<g id="#4d5bf1ff">
<path fill="#4d5bf1" opacity="1.00" d=" M 366.13 380.20 C 369.11 378.76 372.46 381.72 371.95 384.85 C 371.89 392.56 372.24 400.31 371.75 408.01 C 371.05 412.06 364.50 412.08 363.78 408.03 C 363.24 401.38 363.75 394.69 363.54 388.02 C 363.62 385.32 363.01 381.47 366.13 380.20 Z" />
<path fill="#4d5bf1" opacity="1.00" d=" M 384.13 380.18 C 386.34 379.16 389.27 380.62 389.71 383.03 C 390.25 387.00 389.54 391.01 389.79 395.01 C 389.81 399.51 390.32 404.10 389.55 408.56 C 388.31 412.21 382.31 411.78 381.72 407.95 C 381.17 401.34 381.69 394.68 381.47 388.05 C 381.55 385.31 380.94 381.40 384.13 380.18 Z" />
<path fill="#4d5bf1" opacity="1.00" d=" M 350.13 397.43 C 351.46 395.96 352.74 394.42 354.01 392.89 C 353.91 397.92 354.33 402.97 353.82 407.98 C 353.31 410.97 349.08 412.20 347.00 410.01 C 344.91 407.90 345.83 404.59 345.59 401.93 C 347.13 400.46 348.68 398.99 350.13 397.43 Z" />
<path fill="#4d5bf1" opacity="1.00" d=" M 417.44 393.79 C 420.41 393.67 423.33 394.24 425.98 395.60 C 425.46 399.92 426.25 404.33 425.40 408.60 C 424.17 412.05 418.61 411.84 417.66 408.31 C 417.00 403.50 417.51 398.62 417.44 393.79 Z" />
<path fill="#4d5bf1" opacity="1.00" d=" M 399.42 403.05 C 402.35 402.24 405.16 401.08 407.86 399.68 C 407.84 402.46 408.02 405.25 407.63 408.01 C 407.09 410.92 403.02 412.16 400.91 410.10 C 398.87 408.35 399.59 405.39 399.42 403.05 Z" />
<path fill="#4d5bf1" opacity="1.00" d=" M 347.96 417.02 C 350.61 416.31 352.84 417.58 354.02 419.88 C 351.88 419.20 349.85 418.23 347.96 417.02 Z" />
<path fill="#4d5bf1" opacity="1.00" d=" M 368.10 416.94 C 370.09 416.15 372.59 418.80 371.82 420.76 C 370.28 419.82 368.89 418.58 368.10 416.94 Z" />
<path fill="#4d5bf1" opacity="1.00" d=" M 381.70 420.01 C 382.34 415.83 389.13 415.86 389.71 420.05 C 390.06 428.69 390.06 437.38 389.64 446.03 L 389.42 445.97 C 386.50 445.35 383.67 444.31 381.32 442.43 C 381.85 434.96 381.11 427.46 381.70 420.01 Z" />
<path fill="#4d5bf1" opacity="1.00" d=" M 401.38 417.48 C 403.92 415.63 407.92 417.76 407.76 420.91 C 408.02 426.50 407.77 432.11 407.82 437.71 C 405.27 440.13 402.47 442.27 399.65 444.36 C 399.17 437.58 399.56 430.78 399.40 423.99 C 399.46 421.75 399.12 418.83 401.38 417.48 Z" />
<path fill="#4d5bf1" opacity="1.00" d=" M 180.13 430.72 C 191.42 430.73 202.71 430.78 214.00 430.68 C 216.66 430.65 219.30 431.04 221.91 431.55 C 220.85 436.39 220.24 441.32 219.29 446.18 C 218.62 449.95 218.09 453.74 217.46 457.52 C 216.93 459.61 216.12 462.02 213.90 462.87 C 210.35 463.78 206.62 463.28 202.99 463.37 C 198.32 463.23 193.62 463.72 188.97 463.11 C 186.01 462.62 185.04 459.45 184.58 456.91 C 183.15 448.17 181.63 439.45 180.13 430.72 Z" />
</g>
<g id="#fefefeff">
<path fill="#fefefe" opacity="1.00" d=" M 472.20 379.46 C 472.98 379.54 474.53 379.69 475.31 379.76 C 472.90 401.52 470.47 423.27 468.03 445.03 C 467.26 444.96 465.74 444.81 464.98 444.74 C 467.33 422.98 469.83 401.23 472.20 379.46 Z" />
</g>
<g id="#ebf7fbff">
<path fill="#ebf7fb" opacity="1.00" d=" M 345.63 392.15 C 347.15 393.89 348.64 395.66 350.13 397.43 C 348.68 398.99 347.13 400.46 345.59 401.93 C 345.58 398.67 345.58 395.41 345.63 392.15 Z" />
</g>
<g id="#7f8fbbff">
<path fill="#7f8fbb" opacity="1.00" d=" M 278.20 406.55 C 282.33 409.48 281.37 415.49 280.27 419.77 C 290.98 421.81 301.98 420.81 312.81 420.84 C 312.28 416.49 313.86 412.30 316.81 409.12 C 321.48 408.94 327.07 411.19 328.69 415.97 C 328.38 418.10 327.78 420.18 327.15 422.24 C 320.42 424.90 313.05 424.43 305.96 424.53 C 297.39 424.33 288.68 424.47 280.28 422.50 C 276.03 421.54 276.97 416.18 276.60 412.92 C 277.00 410.76 277.58 408.65 278.20 406.55 Z" />
<path fill="#7f8fbb" opacity="1.00" d=" M 236.28 416.85 C 236.38 414.37 236.67 411.86 237.83 409.63 C 238.18 417.36 238.68 425.11 240.18 432.72 C 242.60 431.45 245.13 430.23 247.91 430.07 C 252.83 429.61 258.69 429.67 262.16 433.79 C 262.91 437.27 263.52 441.31 261.64 444.54 C 258.03 447.18 253.22 446.83 248.97 446.99 C 245.71 446.88 241.28 446.89 239.71 443.40 C 235.95 435.75 236.33 426.97 236.17 418.67 C 236.19 418.21 236.25 417.30 236.28 416.85 Z" />
</g>
<g id="#ace9c1ff">
<path fill="#ace9c1" opacity="1.00" d=" M 276.18 414.99 C 276.29 414.47 276.50 413.43 276.60 412.92 C 276.97 416.18 276.03 421.54 280.28 422.50 C 288.68 424.47 297.39 424.33 305.96 424.53 C 313.05 424.43 320.42 424.90 327.15 422.24 C 328.98 422.40 331.57 424.56 332.71 422.18 C 333.40 427.77 334.04 433.36 334.72 438.95 C 335.22 443.08 335.58 447.48 338.09 450.98 C 341.28 455.90 347.31 458.22 353.02 458.01 C 387.02 457.99 421.02 457.99 455.03 458.01 C 459.20 458.13 463.31 456.88 466.75 454.51 C 470.06 450.91 472.02 446.25 472.45 441.39 C 476.68 443.64 481.76 447.42 480.79 452.89 C 479.32 458.20 474.03 461.14 469.40 463.40 C 455.16 469.71 439.50 471.84 424.11 473.28 C 403.95 474.66 383.56 474.16 363.65 470.50 C 355.17 468.91 346.72 466.74 338.90 463.04 C 335.09 461.14 331.14 458.83 328.98 455.02 C 327.41 452.40 328.64 449.31 329.04 446.55 C 306.00 454.04 281.44 454.75 257.45 453.35 C 249.28 452.56 241.11 451.52 233.11 449.67 C 228.46 448.64 224.05 446.68 219.29 446.18 C 220.24 441.32 220.85 436.39 221.91 431.55 C 225.65 429.37 225.47 425.03 225.30 421.21 C 228.92 420.38 232.57 419.63 236.17 418.67 C 236.33 426.97 235.95 435.75 239.71 443.40 C 241.28 446.89 245.71 446.88 248.97 446.99 C 253.22 446.83 258.03 447.18 261.64 444.54 C 263.52 441.31 262.91 437.27 262.16 433.79 C 260.92 427.56 258.95 421.53 256.86 415.55 C 263.30 415.26 269.74 415.11 276.18 414.99 Z" />
<path fill="#ace9c1" opacity="1.00" d=" M 418.74 437.24 C 420.55 433.25 421.73 428.56 425.86 426.27 C 425.81 432.22 425.88 438.17 425.68 444.11 C 425.78 447.42 421.32 449.36 418.92 447.11 C 416.17 444.52 417.67 440.29 418.74 437.24 Z" />
<path fill="#ace9c1" opacity="1.00" d=" M 435.24 426.32 C 440.15 429.49 440.80 435.69 443.47 440.46 C 444.19 442.99 443.89 446.73 441.00 447.80 C 438.39 448.94 435.23 446.70 435.38 443.89 C 435.32 438.03 435.12 432.17 435.24 426.32 Z" />
<path fill="#ace9c1" opacity="1.00" d=" M 363.57 432.37 C 366.36 431.97 369.16 431.58 371.96 431.19 C 371.86 435.79 372.28 440.43 371.74 445.01 C 370.98 449.01 364.51 449.00 363.79 444.98 C 363.28 440.80 363.66 436.57 363.57 432.37 Z" />
<path fill="#ace9c1" opacity="1.00" d=" M 345.62 437.09 C 348.39 436.27 351.18 435.48 353.98 434.74 C 353.93 438.38 354.44 442.10 353.61 445.68 C 352.33 448.72 347.61 448.84 346.15 445.89 C 345.24 443.06 345.71 440.01 345.62 437.09 Z" />
<path fill="#ace9c1" opacity="1.00" d=" M 453.22 440.82 C 456.24 439.97 459.12 438.68 461.69 436.88 C 461.61 439.68 461.89 442.54 461.36 445.32 C 460.56 447.95 456.92 448.96 454.86 447.17 C 452.84 445.69 453.41 442.96 453.22 440.82 Z" />
<path fill="#ace9c1" opacity="1.00" d=" M 384.14 447.76 C 381.85 447.01 381.64 444.43 381.32 442.43 C 383.67 444.31 386.50 445.35 389.42 445.97 C 388.14 447.44 386.12 448.76 384.14 447.76 Z" />
<path fill="#ace9c1" opacity="1.00" d=" M 184.58 456.91 C 185.04 459.45 186.01 462.62 188.97 463.11 C 193.62 463.72 198.32 463.23 202.99 463.37 C 206.62 463.28 210.35 463.78 213.90 462.87 C 216.12 462.02 216.93 459.61 217.46 457.52 C 219.47 458.71 223.80 459.46 222.76 462.70 C 220.18 465.85 215.75 466.31 212.01 467.09 C 202.77 468.45 193.15 468.44 184.09 466.00 C 181.83 465.18 178.83 464.48 178.05 461.88 C 178.55 458.88 182.42 458.43 184.58 456.91 Z" />
</g>
<g id="#e0ffe8ff">
<path fill="#e0ffe8" opacity="1.00" d=" M 328.69 415.97 C 329.89 416.02 330.98 416.37 331.93 417.02 C 332.22 418.73 332.49 420.45 332.71 422.18 C 331.57 424.56 328.98 422.40 327.15 422.24 C 327.78 420.18 328.38 418.10 328.69 415.97 Z" />
<path fill="#e0ffe8" opacity="1.00" d=" M 223.66 418.11 C 227.63 416.42 232.08 417.15 236.28 416.85 C 236.25 417.30 236.19 418.21 236.17 418.67 C 232.57 419.63 228.92 420.38 225.30 421.21 C 224.79 420.15 224.25 419.11 223.66 418.11 Z" />
<path fill="#e0ffe8" opacity="1.00" d=" M 345.71 420.96 C 345.57 419.25 346.96 418.16 347.96 417.02 C 349.85 418.23 351.88 419.20 354.02 419.88 C 354.01 424.83 354.09 429.79 353.98 434.74 C 351.18 435.48 348.39 436.27 345.62 437.09 C 345.72 431.71 345.46 426.33 345.71 420.96 Z" />
<path fill="#e0ffe8" opacity="1.00" d=" M 363.77 419.92 C 364.16 417.93 366.14 416.70 368.10 416.94 C 368.89 418.58 370.28 419.82 371.82 420.76 C 372.03 424.23 371.99 427.71 371.96 431.19 C 369.16 431.58 366.36 431.97 363.57 432.37 C 363.66 428.22 363.30 424.05 363.77 419.92 Z" />
<path fill="#e0ffe8" opacity="1.00" d=" M 84.93 444.95 C 114.26 434.19 144.93 427.48 175.80 422.97 C 175.82 424.95 175.80 426.96 176.20 428.93 C 176.95 430.38 178.74 430.37 180.13 430.72 C 181.63 439.45 183.15 448.17 184.58 456.91 C 182.42 458.43 178.55 458.88 178.05 461.88 C 178.83 464.48 181.83 465.18 184.09 466.00 C 193.15 468.44 202.77 468.45 212.01 467.09 C 215.75 466.31 220.18 465.85 222.76 462.70 C 223.80 459.46 219.47 458.71 217.46 457.52 C 218.09 453.74 218.62 449.95 219.29 446.18 C 224.05 446.68 228.46 448.64 233.11 449.67 C 241.11 451.52 249.28 452.56 257.45 453.35 C 281.44 454.75 306.00 454.04 329.04 446.55 C 328.64 449.31 327.41 452.40 328.98 455.02 C 331.14 458.83 335.09 461.14 338.90 463.04 C 346.72 466.74 355.17 468.91 363.65 470.50 C 383.56 474.16 403.95 474.66 424.11 473.28 C 439.50 471.84 455.16 469.71 469.40 463.40 C 474.03 461.14 479.32 458.20 480.79 452.89 C 481.76 447.42 476.68 443.64 472.45 441.39 C 472.73 438.93 472.95 436.47 473.25 434.02 C 475.04 435.38 477.17 436.12 479.34 436.69 C 497.35 441.86 515.00 448.93 530.59 459.44 C 539.90 466.12 548.49 474.78 552.12 485.91 C 552.89 488.38 554.34 491.75 551.46 493.42 C 526.05 515.12 494.12 529.03 460.99 533.29 C 436.64 536.42 411.43 534.20 388.38 525.53 C 380.09 522.52 372.48 517.97 364.33 514.64 C 346.80 507.09 328.11 502.18 309.08 500.56 C 274.75 497.60 240.11 505.61 209.13 520.24 C 203.92 522.54 198.23 523.37 192.70 524.59 C 168.50 529.40 143.65 532.38 118.98 529.97 C 105.41 528.79 91.96 525.78 79.30 520.72 C 62.12 513.96 47.66 502.07 33.74 490.25 C 32.34 488.79 29.85 487.32 30.92 484.97 C 33.35 476.22 40.17 469.56 47.25 464.28 C 58.68 455.88 71.70 449.93 84.93 444.95 Z" />
</g>
<g id="#5b69ffff">
<path fill="#5b69ff" opacity="1.00" d=" M 177.32 418.45 C 182.84 417.93 188.41 418.40 193.95 418.23 C 196.39 418.23 198.84 418.23 201.29 418.24 C 201.96 418.24 203.31 418.24 203.99 418.24 C 205.57 418.23 207.16 418.24 208.76 418.24 C 213.72 418.22 218.69 418.25 223.66 418.11 C 224.25 419.11 224.79 420.15 225.30 421.21 C 225.47 425.03 225.65 429.37 221.91 431.55 C 219.30 431.04 216.66 430.65 214.00 430.68 C 202.71 430.78 191.42 430.73 180.13 430.72 C 178.74 430.37 176.95 430.38 176.20 428.93 C 175.80 426.96 175.82 424.95 175.80 422.97 C 176.02 421.44 175.50 419.12 177.32 418.45 Z" />
</g>
</svg>
