<?xml version="1.0" encoding="utf-8"?>
<!-- Generator: Adobe Illustrator 16.0.0, SVG Export Plug-In . SVG Version: 6.00 Build 0)  -->
<!DOCTYPE svg PUBLIC "-//W3C//DTD SVG 1.1//EN" "http://www.w3.org/Graphics/SVG/1.1/DTD/svg11.dtd">
<svg version="1.1" id="Layer_1" xmlns="http://www.w3.org/2000/svg" xmlns:xlink="http://www.w3.org/1999/xlink" x="0px" y="0px"
								 viewBox="0 0 2800 512" enable-background="new 0 0 512 512" xml:space="preserve">
							<g>
								<path fill="#FAF9FD" d="M59.45,43.48c41.81-1.11,83.71-0.19,125.55-0.46c17.53,4.04,17.98,31.36,4.67,40.76
									c-43.84,0.44-87.72,0.21-131.57,0.12c-10.83-3.55-9.45-15.91-9.16-24.92C47.29,51.82,53.15,45.66,59.45,43.48z"/>
								<path fill="#FAF9FD" d="M427.42,43.38c15.69-6.1,1.79,18.98,9.55,21.62c0.18-7.33-0.18-14.66,0.09-21.99
									c11.09-2.44,23.17,8.44,20.01,19.98c5.34,21.24-24.76,28.04-36.82,15.73C411.83,67.96,413.91,49.01,427.42,43.38z"/>
								<path fill="#FAF9FD" d="M350.32,57.19c10.92-6.66,18.37,10.88,8.27,14.46C348.87,76.3,342.14,62.34,350.32,57.19z"/>
								<path fill="#FAF9FD" d="M370.32,57.19c10.92-6.66,18.37,10.88,8.27,14.46C369.16,76.28,362.17,62.17,370.32,57.19z"/>
								<path fill="#FAF9FD" d="M389.32,57.19c5.02-0.72,15.24-1.88,12.7,6.81c2.25,7.17-8.93,10.7-13.36,6.37
									C384.12,67.72,384.9,59.74,389.32,57.19z"/>
								<g>
									<path fill="#FAF9FD" d="M242.38,176.46c41.29-4.33,83.23,12.7,111.9,42.26c32.14,31.81,42.64,80.65,33.28,123.94
										c-6.08,33.05-27.96,60.73-54.53,80.38c-29.3,21.45-68.17,27.85-103.37,21.32c-35.34-4.44-65.2-28.1-86.68-55.35
										c-21.94-33.05-29.12-76.08-18.21-114.3C138.11,221.36,188.36,182.11,242.38,176.46z M253.34,190.43
										c-16.67,1-33.47,4.04-48.66,11.23c-44.79,19.44-74.85,68.49-71.63,117.34c2.49,28.39,13.99,57.18,35,76.94
										c26.47,27.84,66.88,42.48,104.96,36.05c37.55-5.6,71.89-29.63,89.72-63.2c21.74-38.8,19.12-90.09-7.72-125.8
										C333.29,209.33,292.82,190.51,253.34,190.43z"/>
								</g>
								<path fill="#FAF9FD" d="M292.05,289.98c5.42-1.44,10.48,0.97,13.7,5.26c9.89,11.71,27.71,15.3,41.32,7.96
									c7.55-1.46,12.82-8.14,19.74-10.27c8.17,34.11-4.24,70.62-28.35,95.55c-29.95,29.94-77.12,42.01-117.46,28.5
									c-48.59-14.29-84.5-65.28-77.89-116.03c3.54,1.48,5.81,9.08,10.92,6.13c6.52-3.61,9.52-13.98,18.98-11.1
									c11.88,5.08,14.53,19.02,21.08,28.97c4.37,7.76,14.86,10.77,22.84,6.96c10.71-5.68,21.05-14.52,24.52-26.57
									c0.79-3.21,5.26-1.32,7.23,0.03c8.03,5.84,14.54,13.45,21.27,20.65c3.07,3.03,9.39,3.43,10.63-1.38
									C283.31,312.82,285,300.18,292.05,289.98z"/>
							</g>
							<g>
								<g>
									<path fill="#7259F9" d="M83.63,0h342.74c33.44,6.21,66.03,27.39,78.16,60.59c4.01,7.58,3.96,16.63,7.47,24.02v343.76
										c-7.12,30.22-25.79,59.68-55.37,72.21c-25.07,13.71-54.34,8.59-81.63,9.42c-96.67-0.04-193.33,0.07-290-0.05
										c-20.12-3.05-38.74-12.74-54.47-25.42C14.54,468.51,4.45,447.39,0,425.46V84.48c6.41-27.09,20.16-55.17,45.6-68.93
										C56.64,6.87,70.77,4.23,83.63,0z M59.45,43.48c-6.3,2.18-12.16,8.34-10.51,15.5c-0.29,9.01-1.67,21.37,9.16,24.92
										c43.85,0.09,87.73,0.32,131.57-0.12c13.31-9.4,12.86-36.72-4.67-40.76C143.16,43.29,101.26,42.37,59.45,43.48z M427.42,43.38
										c-13.51,5.63-15.59,24.58-7.17,35.34c12.06,12.31,42.16,5.51,36.82-15.73c3.16-11.54-8.92-22.42-20.01-19.98
										c-0.27,7.33,0.09,14.66-0.09,21.99C429.21,62.36,443.11,37.28,427.42,43.38z M350.32,57.19c-8.18,5.15-1.45,19.11,8.27,14.46
										C368.69,68.07,361.24,50.53,350.32,57.19z M370.32,57.19c-8.15,4.98-1.16,19.09,8.27,14.46
										C388.69,68.07,381.24,50.53,370.32,57.19z M389.32,57.19c-4.42,2.55-5.2,10.53-0.66,13.18c4.43,4.33,15.61,0.8,13.36-6.37
										C404.56,55.31,394.34,56.47,389.32,57.19z M242.38,176.46c-54.02,5.65-104.27,44.9-117.61,98.25
										c-10.91,38.22-3.73,81.25,18.21,114.3c21.48,27.25,51.34,50.91,86.68,55.35c35.2,6.53,74.07,0.13,103.37-21.32
										c26.57-19.65,48.45-47.33,54.53-80.38c9.36-43.29-1.14-92.13-33.28-123.94C325.61,189.16,283.67,172.13,242.38,176.46z"/>
								</g>
								<g>
									<path id="dor" fill="#7259F9" d="M253.34,190.43c39.48,0.08,79.95,18.9,101.67,52.56c26.84,35.71,29.46,87,7.72,125.8
										c-17.83,33.57-52.17,57.6-89.72,63.2c-38.08,6.43-78.49-8.21-104.96-36.05c-21.01-19.76-32.51-48.55-35-76.94
										c-3.22-48.85,26.84-97.9,71.63-117.34C219.87,194.47,236.67,191.43,253.34,190.43z M292.05,289.98
										c-7.05,10.2-8.74,22.84-11.47,34.66c-1.24,4.81-7.56,4.41-10.63,1.38c-6.73-7.2-13.24-14.81-21.27-20.65
										c-1.97-1.35-6.44-3.24-7.23-0.03c-3.47,12.05-13.81,20.89-24.52,26.57c-7.98,3.81-18.47,0.8-22.84-6.96
										c-6.55-9.95-9.2-23.89-21.08-28.97c-9.46-2.88-12.46,7.49-18.98,11.1c-5.11,2.95-7.38-4.65-10.92-6.13
										c-6.61,50.75,29.3,101.74,77.89,116.03c40.34,13.51,87.51,1.44,117.46-28.5c24.11-24.93,36.52-61.44,28.35-95.55
										c-6.92,2.13-12.19,8.81-19.74,10.27c-13.61,7.34-31.43,3.75-41.32-7.96C302.53,290.95,297.47,288.54,292.05,289.98z"/>
								</g>
							</g>
							<line fill="none" stroke="#dedede" stroke-miterlimit="10" x1="0" y1="109" x2="512" y2="106"/>
							<text transform="matrix(1 0 0 1 578.6807 362.9707)" fill="#2E3192" stroke="#2B3990" font-family="'SegoeUIEmoji'" font-size="408" stroke-width="5" stroke-miterlimit="10" font-weight="bold">QuickWash</text>
						</svg>