<?xml version="1.0" encoding="UTF-8" ?>
<!DOCTYPE svg PUBLIC "-//W3C//DTD SVG 1.1//EN" "http://www.w3.org/Graphics/SVG/1.1/DTD/svg11.dtd">
<svg width="112pt" height="120pt" viewBox="0 0 112 120" version="1.1" xmlns="http://www.w3.org/2000/svg">
<g id="#fafffbff">
<path fill="#fafffb" opacity="1.00" d=" M 21.15 45.17 C 26.79 44.83 32.47 44.96 38.12 45.10 C 38.42 45.36 39.01 45.88 39.31 46.13 C 39.79 50.58 39.39 55.07 39.51 59.54 C 33.00 59.55 26.50 59.55 20.00 59.54 C 20.11 55.09 19.74 50.61 20.17 46.18 C 20.41 45.92 20.90 45.42 21.15 45.17 Z" />
<path fill="#fafffb" opacity="1.00" d=" M 40.53 49.14 C 43.52 49.25 46.59 48.78 49.53 49.46 C 51.49 51.73 52.38 54.72 53.78 57.34 C 55.45 57.84 57.51 57.79 58.77 59.15 C 59.19 61.67 59.20 64.28 58.77 66.80 C 57.93 68.08 56.24 67.73 54.96 68.06 C 53.85 69.92 52.41 72.03 49.96 71.97 C 47.35 72.20 45.54 70.04 44.54 67.91 C 41.52 67.84 38.50 67.84 35.48 67.91 C 34.49 70.07 32.62 72.24 30.00 71.97 C 27.56 72.00 26.13 69.86 25.04 67.99 C 23.44 67.66 21.29 68.36 20.21 66.77 C 19.84 64.73 20.00 62.64 19.98 60.58 C 26.82 60.56 33.67 60.58 40.51 60.56 C 40.51 56.75 40.52 52.95 40.53 49.14 M 43.64 52.26 C 43.63 54.33 43.62 56.41 43.62 58.48 C 46.00 58.49 48.38 58.49 50.76 58.49 C 49.75 56.41 48.73 54.34 47.69 52.27 C 46.34 52.27 44.99 52.26 43.64 52.26 M 29.15 65.07 C 26.87 66.47 29.25 70.06 31.45 68.57 C 33.54 67.06 31.35 63.67 29.15 65.07 M 48.28 65.29 C 46.38 67.17 49.49 70.29 51.21 68.20 C 53.07 66.47 50.15 63.48 48.28 65.29 Z" />
</g>
<g id="#29c56bff">
<path fill="#29c56b" opacity="1.00" d=" M 32.46 21.68 C 48.32 18.40 65.55 26.79 72.81 41.23 C 78.18 51.40 78.52 64.02 73.61 74.43 C 68.66 85.07 58.53 93.30 46.96 95.51 C 40.32 97.21 33.34 96.19 26.91 94.14 C 13.89 89.46 3.82 77.26 2.24 63.44 C -0.72 44.40 13.48 24.85 32.46 21.68 M 21.15 45.17 C 20.90 45.42 20.41 45.92 20.17 46.18 C 19.74 50.61 20.11 55.09 20.00 59.54 C 26.50 59.55 33.00 59.55 39.51 59.54 C 39.39 55.07 39.79 50.58 39.31 46.13 C 39.01 45.88 38.42 45.36 38.12 45.10 C 32.47 44.96 26.79 44.83 21.15 45.17 M 40.53 49.14 C 40.52 52.95 40.51 56.75 40.51 60.56 C 33.67 60.58 26.82 60.56 19.98 60.58 C 20.00 62.64 19.84 64.73 20.21 66.77 C 21.29 68.36 23.44 67.66 25.04 67.99 C 26.13 69.86 27.56 72.00 30.00 71.97 C 32.62 72.24 34.49 70.07 35.48 67.91 C 38.50 67.84 41.52 67.84 44.54 67.91 C 45.54 70.04 47.35 72.20 49.96 71.97 C 52.41 72.03 53.85 69.92 54.96 68.06 C 56.24 67.73 57.93 68.08 58.77 66.80 C 59.20 64.28 59.19 61.67 58.77 59.15 C 57.51 57.79 55.45 57.84 53.78 57.34 C 52.38 54.72 51.49 51.73 49.53 49.46 C 46.59 48.78 43.52 49.25 40.53 49.14 Z" />
<path fill="#29c56b" opacity="1.00" d=" M 43.64 52.26 C 44.99 52.26 46.34 52.27 47.69 52.27 C 48.73 54.34 49.75 56.41 50.76 58.49 C 48.38 58.49 46.00 58.49 43.62 58.48 C 43.62 56.41 43.63 54.33 43.64 52.26 Z" />
<path fill="#29c56b" opacity="1.00" d=" M 29.15 65.07 C 31.35 63.67 33.54 67.06 31.45 68.57 C 29.25 70.06 26.87 66.47 29.15 65.07 Z" />
<path fill="#29c56b" opacity="1.00" d=" M 48.28 65.29 C 50.15 63.48 53.07 66.47 51.21 68.20 C 49.49 70.29 46.38 67.17 48.28 65.29 Z" />
</g>
</svg>
